<?xml version="1.0" encoding="utf-8"?>
<!-- Generator: Adobe Illustrator 25.3.1, SVG Export Plug-In . SVG Version: 6.00 Build 0)  -->
<svg version="1.1" id="Layer_1" xmlns="http://www.w3.org/2000/svg" xmlns:xlink="http://www.w3.org/1999/xlink" x="0px" y="0px"
	 viewBox="0 0 20 20" style="enable-background:new 0 0 20 20;" xml:space="preserve">
<g id="XMLID_1_">
	<g>
		<path d="M18.7,16.9c0.7,0,1.2,0.5,1.2,1.3c0,0.7-0.5,1.2-1.2,1.2c-0.7,0-1.2-0.5-1.2-1.2C17.5,17.4,18,16.9,18.7,16.9z M18.7,17.6
			c-0.4,0-0.6,0.2-0.6,0.6c0,0.4,0.3,0.6,0.6,0.6c0.4,0,0.6-0.2,0.6-0.6C19.4,17.8,19.1,17.6,18.7,17.6z"/>
		<path d="M16,16.9c0.7,0,1.2,0.5,1.2,1.3c0,0.7-0.5,1.2-1.2,1.2c-0.7,0-1.2-0.5-1.2-1.2C14.8,17.4,15.3,16.9,16,16.9z M16,18.8
			c0.4,0,0.6-0.2,0.6-0.6c0-0.4-0.3-0.6-0.6-0.6c-0.4,0-0.6,0.2-0.6,0.6C15.4,18.5,15.6,18.8,16,18.8z"/>
		<path d="M13.1,17.5L13,17h0.6l0.1,0.3c0.1-0.2,0.4-0.4,0.7-0.4c0.1,0,0.3,0,0.4,0.1l-0.3,0.7c-0.1-0.1-0.2-0.1-0.3-0.1
			c-0.2,0-0.4,0.1-0.4,0.3v1.5h-0.6V17.5z"/>
		<path d="M11.5,16.9c0.7,0,1.2,0.5,1.2,1.2c0,0.1,0,0.2,0,0.3h-1.7c0.1,0.2,0.3,0.4,0.7,0.4c0.2,0,0.5-0.1,0.7-0.2l0.2,0.5
			c-0.3,0.2-0.6,0.3-1,0.3c-0.8,0-1.3-0.5-1.3-1.3C10.3,17.4,10.8,16.9,11.5,16.9z M12.1,18c-0.1-0.3-0.3-0.4-0.6-0.4
			c-0.3,0-0.5,0.1-0.6,0.4H12.1z"/>
		<path d="M11.8,9c-0.2,0-0.3,0.1-0.4,0.2c-0.1,0.1-0.1,0.2-0.1,0.3c0,0.2,0,0.5,0.2,0.6c0.3,0.2,0.7,0.1,0.8-0.1
			c0.1-0.2,0.2-0.5,0.1-0.7S12.1,9,11.8,9z M8.4,7.6L7.3,2.3l3.5-0.8L12,6.8l0.7-6.3l3.6,0.4l-1,9.3l-2,4.6l-8.9-1.9L3.3,8.7
			L8.4,7.6z M9.1,9.7c0.3,0.1,0.5,0.1,0.7-0.1C10,9.5,10,9.3,10,9c0-0.2-0.2-0.3-0.4-0.4c-0.1,0-0.1,0-0.2,0C9.2,8.6,8.9,8.7,8.8,9
			C8.7,9.3,8.8,9.7,9.1,9.7z"/>
		<polygon points="9,18.9 9.5,17 10.1,17 9.5,19.4 8.5,19.4 7.8,17 8.5,17 		"/>
		<rect x="6.9" y="17" width="0.6" height="2.4"/>
		<path d="M7.2,15.9c0.2,0,0.4,0.2,0.4,0.4c0,0.2-0.2,0.4-0.4,0.4c-0.2,0-0.4-0.2-0.4-0.4C6.8,16,7,15.9,7.2,15.9z"/>
		<rect x="5.7" y="15.9" width="0.6" height="3.5"/>
		<path d="M4.7,18c-0.1-0.3-0.3-0.4-0.6-0.4c-0.3,0-0.5,0.1-0.6,0.4H4.7z M2.9,18.2c0-0.7,0.5-1.2,1.2-1.2c0.7,0,1.2,0.5,1.2,1.2
			c0,0.1,0,0.2,0,0.3H3.5c0.1,0.2,0.3,0.4,0.6,0.4c0.2,0,0.5-0.1,0.7-0.2l0.2,0.5c-0.3,0.2-0.6,0.3-1,0.3
			C3.4,19.4,2.9,18.9,2.9,18.2z"/>
		<path d="M1.9,18.2c0-0.4-0.3-0.6-0.6-0.6s-0.6,0.2-0.6,0.6c0,0.4,0.3,0.6,0.6,0.6S1.9,18.5,1.9,18.2z M1.9,19.1
			c-0.2,0.2-0.4,0.4-0.8,0.4c-0.6,0-1.1-0.5-1.1-1.2c0-0.8,0.5-1.3,1.1-1.2c0.3,0,0.6,0.1,0.7,0.3v-1.3h0.6v3l0.1,0.5H2L1.9,19.1z"
			/>
	</g>
	<g>
	</g>
</g>
</svg>
