<?xml version="1.0" standalone="no"?>
<!DOCTYPE svg PUBLIC "-//W3C//DTD SVG 20010904//EN"
 "http://www.w3.org/TR/2001/REC-SVG-20010904/DTD/svg10.dtd">
<svg version="1.0" xmlns="http://www.w3.org/2000/svg"
 width="1077.000000pt" height="838.000000pt" viewBox="0 0 1077.000000 838.000000"
 preserveAspectRatio="xMidYMid meet">
<metadata>
Created by potrace 1.16, written by Peter Selinger 2001-2019
</metadata>
<g transform="translate(0.000000,838.000000) scale(0.100000,-0.100000)"
fill="#000000" stroke="none">
<path d="M3521 8365 c-36 -8 -96 -30 -135 -48 -230 -111 -338 -322 -306 -602
47 -419 212 -1334 385 -2137 l66 -307 -64 -93 c-153 -222 -231 -448 -258 -746
-32 -363 64 -740 265 -1042 176 -263 403 -456 738 -626 325 -164 549 -228 798
-227 155 1 246 20 368 78 l73 35 77 -27 c66 -23 93 -27 192 -26 69 0 144 7
188 16 212 48 550 211 762 368 463 341 768 799 877 1319 24 111 27 148 27 335
1 266 -23 396 -115 612 -21 51 -39 104 -39 118 0 15 18 86 40 158 143 478 209
932 236 1607 7 191 -5 268 -56 370 -78 155 -248 250 -445 250 -165 0 -275 -50
-410 -185 -75 -74 -99 -107 -142 -190 -69 -135 -95 -212 -159 -470 -30 -121
-59 -237 -65 -257 l-9 -37 -58 21 c-83 30 -259 36 -355 13 -90 -22 -169 -61
-242 -121 -31 -25 -58 -44 -59 -42 -1 2 -15 26 -31 53 -59 103 -188 213 -303
258 -149 59 -366 51 -502 -18 l-47 -24 -93 222 c-51 122 -135 327 -186 455
-165 411 -269 597 -419 748 -86 87 -170 142 -268 176 -80 27 -236 33 -326 13z
m293 -263 c174 -81 296 -272 506 -792 59 -146 151 -371 204 -500 53 -129 104
-258 113 -286 l16 -51 -32 -67 c-61 -130 -102 -282 -150 -563 l-26 -155 -100
-39 c-130 -51 -331 -152 -469 -234 -60 -36 -111 -63 -113 -61 -5 5 -114 512
-177 828 -138 686 -268 1475 -268 1628 0 53 6 92 21 132 64 168 293 245 475
160z m3506 -616 c44 -23 88 -63 106 -97 31 -61 35 -119 24 -349 -29 -611 -95
-1030 -232 -1478 -37 -122 -40 -140 -36 -215 4 -66 13 -100 46 -177 87 -206
118 -373 109 -585 -27 -648 -472 -1277 -1132 -1600 -273 -134 -490 -181 -608
-132 l-27 12 35 52 c19 29 44 76 55 104 18 44 19 57 9 81 -14 34 -37 48 -77
48 -36 0 -53 -18 -93 -100 -39 -77 -126 -165 -205 -207 -149 -79 -348 -86
-584 -21 -178 49 -462 183 -634 301 -113 78 -279 236 -361 345 -321 429 -360
1057 -93 1506 95 159 224 258 553 421 216 107 329 151 524 202 128 35 145 37
291 37 139 1 161 -2 213 -22 72 -29 150 -104 182 -174 29 -63 55 -181 55 -246
-1 -189 -123 -374 -304 -462 -164 -79 -387 -112 -627 -92 -111 9 -137 9 -160
-3 -33 -17 -43 -44 -35 -89 9 -46 33 -64 102 -77 135 -25 263 -68 388 -131
182 -92 378 -261 510 -440 54 -74 59 -78 96 -78 30 0 43 6 59 26 12 15 21 37
21 50 0 39 -101 175 -215 289 -116 116 -181 167 -320 252 l-85 51 42 7 c239
37 449 154 560 313 l29 43 38 -58 c83 -129 225 -222 373 -245 266 -41 511 148
648 499 78 198 112 365 131 643 20 284 -3 496 -66 608 -14 24 -25 53 -25 62 0
31 167 682 195 760 72 199 174 326 303 375 50 20 176 14 222 -9z m-2017 -934
c80 -40 148 -112 176 -188 35 -93 44 -184 38 -389 -5 -165 -22 -362 -33 -374
-2 -2 -31 21 -64 53 -69 66 -155 110 -261 132 -98 21 -285 13 -431 -19 l-108
-23 0 22 c0 37 57 311 85 409 36 128 94 241 155 303 86 87 153 113 286 109 79
-2 100 -7 157 -35z m968 -152 c123 -39 211 -132 247 -262 24 -88 23 -463 -2
-628 -46 -309 -137 -537 -271 -679 -90 -95 -153 -125 -265 -125 -72 0 -94 4
-141 27 -125 60 -204 171 -229 319 -17 100 -8 289 25 501 77 501 146 686 297
799 91 69 217 87 339 48z"/>
<path d="M9464 1869 c-221 -26 -396 -139 -439 -282 -31 -103 -12 -194 59 -297
31 -44 42 -68 35 -75 -5 -5 -40 -12 -77 -15 l-67 -5 1 -62 c1 -81 12 -93 85
-93 90 0 89 3 89 -290 0 -357 -16 -460 -89 -574 -35 -56 -38 -81 -15 -114 15
-22 17 -22 295 -22 266 0 280 1 299 20 29 29 25 69 -15 124 -70 99 -84 190
-85 551 0 220 2 264 16 283 15 21 21 22 184 22 163 0 169 -1 184 -22 14 -19
16 -62 16 -268 0 -359 -16 -461 -88 -574 -36 -56 -39 -81 -16 -114 15 -22 17
-22 295 -22 266 0 280 1 299 20 29 29 25 69 -15 124 -70 99 -85 196 -85 561 0
309 -6 295 118 295 48 0 92 4 98 8 7 4 17 33 24 65 17 84 13 87 -129 87 -138
0 -187 18 -234 85 -41 60 -63 182 -47 259 14 71 63 130 121 147 50 16 119 -9
151 -54 33 -45 36 -130 9 -193 -37 -82 -11 -117 84 -117 93 0 178 53 220 136
78 157 -38 332 -261 392 -102 28 -247 22 -407 -15 l-137 -33 -128 31 c-144 34
-245 43 -348 31z m225 -194 c36 -18 78 -64 91 -100 6 -16 17 -64 24 -105 14
-78 44 -148 91 -210 40 -55 24 -60 -180 -60 -231 0 -271 15 -322 118 -24 48
-28 69 -28 137 0 129 56 207 170 236 39 10 121 2 154 -16z"/>
<path d="M5134 1791 c-73 -65 -176 -120 -267 -144 -114 -30 -134 -67 -71 -128
51 -49 72 -95 84 -190 19 -155 12 -209 -29 -209 -8 0 -42 18 -75 39 -113 72
-221 93 -345 67 -136 -29 -237 -110 -301 -240 -50 -103 -69 -175 -76 -301 -15
-241 63 -477 191 -578 157 -124 375 -129 551 -12 79 52 89 48 96 -44 5 -58 17
-59 230 -12 106 24 208 49 226 57 42 17 41 40 -3 112 -19 32 -40 77 -46 102
-9 33 -14 242 -16 775 -4 653 -6 731 -20 747 -28 31 -58 21 -129 -41z m-429
-770 c110 -51 162 -169 172 -393 9 -188 -17 -293 -87 -351 -63 -53 -154 -43
-220 23 -81 81 -121 210 -122 390 -2 182 40 292 125 331 53 23 81 23 132 0z"/>
<path d="M1210 1803 c-8 -3 -27 -14 -42 -25 -15 -10 -53 -29 -85 -41 -56 -20
-76 -21 -556 -27 -479 -5 -499 -6 -513 -24 -22 -31 -17 -50 27 -102 117 -141
139 -254 139 -724 -1 -489 -15 -579 -110 -677 -53 -56 -61 -83 -34 -121 l15
-22 344 0 c379 0 375 -1 375 62 0 23 -13 45 -53 88 -79 85 -89 122 -94 371 -6
243 -5 249 65 249 65 0 169 -26 217 -55 23 -13 60 -44 83 -69 53 -57 76 -70
101 -56 11 5 22 19 26 30 5 17 -82 340 -121 448 -24 65 -52 59 -113 -26 -55
-75 -92 -98 -174 -108 -88 -10 -87 -13 -87 262 l0 236 29 29 c29 28 32 29 128
29 224 -1 353 -62 456 -219 25 -37 53 -71 62 -75 53 -20 95 11 95 69 0 17 -20
125 -45 239 -25 115 -45 213 -45 217 0 5 -9 18 -20 29 -20 20 -41 24 -70 13z"/>
<path d="M7005 1615 c-18 -19 -41 -58 -51 -87 -56 -174 -155 -282 -297 -328
-48 -15 -67 -35 -67 -70 0 -44 23 -60 89 -60 95 0 91 14 91 -342 0 -271 2
-313 20 -382 37 -145 110 -244 218 -294 50 -24 69 -27 162 -27 118 0 161 15
238 81 75 64 134 225 103 283 -17 31 -38 26 -85 -22 -25 -26 -55 -46 -74 -50
-66 -13 -129 34 -164 122 -21 52 -22 76 -26 331 -3 254 -2 275 14 287 11 8 49
13 105 13 100 0 119 10 119 64 0 51 -20 60 -134 66 l-101 5 -5 185 c-4 118
-10 193 -18 207 -36 65 -87 72 -137 18z"/>
<path d="M6361 1226 c-45 -48 -72 -52 -187 -26 -88 19 -121 22 -216 17 -164
-8 -270 -48 -355 -133 -61 -61 -87 -122 -87 -205 0 -80 27 -133 104 -203 68
-60 127 -93 337 -187 238 -106 288 -148 263 -223 -21 -64 -92 -106 -178 -106
-130 0 -207 80 -168 174 35 83 12 123 -85 146 -105 25 -235 -8 -281 -73 -31
-43 -36 -131 -12 -183 40 -83 150 -157 291 -196 116 -31 337 -31 447 0 203 58
310 158 323 302 15 164 -89 270 -406 415 -161 74 -210 102 -240 141 -42 53
-19 120 50 148 127 51 259 -18 402 -209 32 -44 68 -83 80 -88 25 -9 67 16 67
41 0 39 -89 443 -100 457 -17 20 -23 19 -49 -9z"/>
<path d="M8678 1203 c-29 -27 -77 -63 -106 -82 -56 -36 -201 -91 -240 -91 -36
0 -62 -18 -62 -44 0 -13 18 -46 40 -72 63 -75 84 -158 85 -324 0 -164 -16
-221 -79 -284 -76 -76 -178 -82 -230 -13 -52 69 -56 108 -56 524 0 246 -4 391
-10 404 -21 37 -62 24 -130 -41 -70 -67 -169 -121 -270 -146 -36 -9 -71 -21
-77 -26 -20 -17 -15 -53 11 -77 59 -56 86 -187 86 -426 0 -79 6 -155 15 -193
29 -124 98 -222 189 -270 47 -25 60 -27 161 -26 148 0 193 17 328 126 39 32
60 16 67 -50 10 -92 9 -92 242 -43 112 23 213 49 226 57 29 19 29 64 1 90 -34
30 -58 88 -69 161 -5 37 -10 247 -10 465 l0 397 -22 15 c-12 9 -26 16 -30 16
-4 0 -31 -21 -60 -47z"/>
<path d="M1805 1230 c-328 -51 -526 -277 -528 -600 -1 -175 49 -296 173 -421
82 -83 174 -136 284 -164 209 -53 442 -12 596 104 135 103 209 247 225 441 24
283 -174 552 -460 625 -77 20 -213 27 -290 15z m155 -196 c158 -80 235 -521
129 -740 -55 -114 -193 -124 -273 -19 -140 183 -164 581 -44 718 53 61 120 76
188 41z"/>
<path d="M3179 1229 c-85 -11 -199 -52 -268 -96 -195 -125 -299 -391 -247
-633 48 -220 201 -378 436 -451 97 -30 290 -33 389 -5 216 59 377 220 426 427
19 82 19 238 0 312 -61 235 -266 411 -518 446 -88 12 -123 12 -218 0z m162
-195 c144 -72 224 -478 140 -705 -69 -183 -243 -170 -335 24 -55 117 -70 192
-70 352 0 123 3 147 23 199 51 129 145 179 242 130z"/>
</g>
</svg>
