<svg xmlns="http://www.w3.org/2000/svg" xmlns:xlink="http://www.w3.org/1999/xlink" version="1.1" id="Layer_1" x="0px" y="0px" style="enable-background:new 0 0 1077 838;" xml:space="preserve" viewBox="307.45 0.32 462.33 583.99">
<style type="text/css">
	.st0{display:none;}
</style>
<g transform="translate(0.000000,838.000000) scale(0.100000,-0.100000)">
	<path d="M3521,8365c-36-8-96-30-135-48c-230-111-338-322-306-602c47-419,212-1334,385-2137l66-307l-64-93c-153-222-231-448-258-746   c-32-363,64-740,265-1042c176-263,403-456,738-626c325-164,549-228,798-227c155,1,246,20,368,78l73,35l77-27c66-23,93-27,192-26   c69,0,144,7,188,16c212,48,550,211,762,368c463,341,768,799,877,1319c24,111,27,148,27,335c1,266-23,396-115,612   c-21,51-39,104-39,118c0,15,18,86,40,158c143,478,209,932,236,1607c7,191-5,268-56,370c-78,155-248,250-445,250   c-165,0-275-50-410-185c-75-74-99-107-142-190c-69-135-95-212-159-470c-30-121-59-237-65-257l-9-37l-58,21c-83,30-259,36-355,13   c-90-22-169-61-242-121c-31-25-58-44-59-42s-15,26-31,53c-59,103-188,213-303,258c-149,59-366,51-502-18l-47-24l-93,222   c-51,122-135,327-186,455c-165,411-269,597-419,748c-86,87-170,142-268,176C3767,8379,3611,8385,3521,8365z M3814,8102   c174-81,296-272,506-792c59-146,151-371,204-500s104-258,113-286l16-51l-32-67c-61-130-102-282-150-563l-26-155l-100-39   c-130-51-331-152-469-234c-60-36-111-63-113-61c-5,5-114,512-177,828c-138,686-268,1475-268,1628c0,53,6,92,21,132   C3403,8110,3632,8187,3814,8102z M7320,7486c44-23,88-63,106-97c31-61,35-119,24-349c-29-611-95-1030-232-1478   c-37-122-40-140-36-215c4-66,13-100,46-177c87-206,118-373,109-585c-27-648-472-1277-1132-1600c-273-134-490-181-608-132l-27,12   l35,52c19,29,44,76,55,104c18,44,19,57,9,81c-14,34-37,48-77,48c-36,0-53-18-93-100c-39-77-126-165-205-207c-149-79-348-86-584-21   c-178,49-462,183-634,301c-113,78-279,236-361,345c-321,429-360,1057-93,1506c95,159,224,258,553,421c216,107,329,151,524,202   c128,35,145,37,291,37c139,1,161-2,213-22c72-29,150-104,182-174c29-63,55-181,55-246c-1-189-123-374-304-462   c-164-79-387-112-627-92c-111,9-137,9-160-3c-33-17-43-44-35-89c9-46,33-64,102-77c135-25,263-68,388-131c182-92,378-261,510-440   c54-74,59-78,96-78c30,0,43,6,59,26c12,15,21,37,21,50c0,39-101,175-215,289c-116,116-181,167-320,252l-85,51l42,7   c239,37,449,154,560,313l29,43l38-58c83-129,225-222,373-245c266-41,511,148,648,499c78,198,112,365,131,643c20,284-3,496-66,608   c-14,24-25,53-25,62c0,31,167,682,195,760c72,199,174,326,303,375C7148,7515,7274,7509,7320,7486z M5303,6552   c80-40,148-112,176-188c35-93,44-184,38-389c-5-165-22-362-33-374c-2-2-31,21-64,53c-69,66-155,110-261,132c-98,21-285,13-431-19   l-108-23v22c0,37,57,311,85,409c36,128,94,241,155,303c86,87,153,113,286,109C5225,6585,5246,6580,5303,6552z M6271,6400   c123-39,211-132,247-262c24-88,23-463-2-628c-46-309-137-537-271-679c-90-95-153-125-265-125c-72,0-94,4-141,27   c-125,60-204,171-229,319c-17,100-8,289,25,501c77,501,146,686,297,799C6023,6421,6149,6439,6271,6400z"/>
	<path class="st0" d="M9464,1869c-221-26-396-139-439-282c-31-103-12-194,59-297c31-44,42-68,35-75c-5-5-40-12-77-15l-67-5l1-62   c1-81,12-93,85-93c90,0,89,3,89-290c0-357-16-460-89-574c-35-56-38-81-15-114c15-22,17-22,295-22c266,0,280,1,299,20   c29,29,25,69-15,124c-70,99-84,190-85,551c0,220,2,264,16,283c15,21,21,22,184,22s169-1,184-22c14-19,16-62,16-268   c0-359-16-461-88-574c-36-56-39-81-16-114c15-22,17-22,295-22c266,0,280,1,299,20c29,29,25,69-15,124c-70,99-85,196-85,561   c0,309-6,295,118,295c48,0,92,4,98,8c7,4,17,33,24,65c17,84,13,87-129,87c-138,0-187,18-234,85c-41,60-63,182-47,259   c14,71,63,130,121,147c50,16,119-9,151-54c33-45,36-130,9-193c-37-82-11-117,84-117c93,0,178,53,220,136c78,157-38,332-261,392   c-102,28-247,22-407-15l-137-33l-128,31C9668,1872,9567,1881,9464,1869z M9689,1675c36-18,78-64,91-100c6-16,17-64,24-105   c14-78,44-148,91-210c40-55,24-60-180-60c-231,0-271,15-322,118c-24,48-28,69-28,137c0,129,56,207,170,236   C9574,1701,9656,1693,9689,1675z"/>
	<path class="st0" d="M5134,1791c-73-65-176-120-267-144c-114-30-134-67-71-128c51-49,72-95,84-190c19-155,12-209-29-209   c-8,0-42,18-75,39c-113,72-221,93-345,67c-136-29-237-110-301-240c-50-103-69-175-76-301c-15-241,63-477,191-578   c157-124,375-129,551-12c79,52,89,48,96-44c5-58,17-59,230-12c106,24,208,49,226,57c42,17,41,40-3,112c-19,32-40,77-46,102   c-9,33-14,242-16,775c-4,653-6,731-20,747C5235,1863,5205,1853,5134,1791z M4705,1021c110-51,162-169,172-393c9-188-17-293-87-351   c-63-53-154-43-220,23c-81,81-121,210-122,390c-2,182,40,292,125,331C4626,1044,4654,1044,4705,1021z"/>
	<path class="st0" d="M1210,1803c-8-3-27-14-42-25c-15-10-53-29-85-41c-56-20-76-21-556-27c-479-5-499-6-513-24c-22-31-17-50,27-102   c117-141,139-254,139-724c-1-489-15-579-110-677C17,127,9,100,36,62l15-22h344c379,0,375-1,375,62c0,23-13,45-53,88   c-79,85-89,122-94,371c-6,243-5,249,65,249c65,0,169-26,217-55c23-13,60-44,83-69c53-57,76-70,101-56c11,5,22,19,26,30   c5,17-82,340-121,448c-24,65-52,59-113-26c-55-75-92-98-174-108c-88-10-87-13-87,262v236l29,29c29,28,32,29,128,29   c224-1,353-62,456-219c25-37,53-71,62-75c53-20,95,11,95,69c0,17-20,125-45,239c-25,115-45,213-45,217c0,5-9,18-20,29   C1260,1810,1239,1814,1210,1803z"/>
	<path class="st0" d="M7005,1615c-18-19-41-58-51-87c-56-174-155-282-297-328c-48-15-67-35-67-70c0-44,23-60,89-60   c95,0,91,14,91-342c0-271,2-313,20-382c37-145,110-244,218-294c50-24,69-27,162-27c118,0,161,15,238,81c75,64,134,225,103,283   c-17,31-38,26-85-22c-25-26-55-46-74-50c-66-13-129,34-164,122c-21,52-22,76-26,331c-3,254-2,275,14,287c11,8,49,13,105,13   c100,0,119,10,119,64c0,51-20,60-134,66l-101,5l-5,185c-4,118-10,193-18,207C7106,1662,7055,1669,7005,1615z"/>
	<path class="st0" d="M6361,1226c-45-48-72-52-187-26c-88,19-121,22-216,17c-164-8-270-48-355-133c-61-61-87-122-87-205   c0-80,27-133,104-203c68-60,127-93,337-187c238-106,288-148,263-223c-21-64-92-106-178-106c-130,0-207,80-168,174   c35,83,12,123-85,146c-105,25-235-8-281-73c-31-43-36-131-12-183c40-83,150-157,291-196c116-31,337-31,447,0   c203,58,310,158,323,302c15,164-89,270-406,415c-161,74-210,102-240,141c-42,53-19,120,50,148c127,51,259-18,402-209   c32-44,68-83,80-88c25-9,67,16,67,41c0,39-89,443-100,457C6393,1255,6387,1254,6361,1226z"/>
	<path class="st0" d="M8678,1203c-29-27-77-63-106-82c-56-36-201-91-240-91c-36,0-62-18-62-44c0-13,18-46,40-72c63-75,84-158,85-324   c0-164-16-221-79-284c-76-76-178-82-230-13s-56,108-56,524c0,246-4,391-10,404c-21,37-62,24-130-41c-70-67-169-121-270-146   c-36-9-71-21-77-26c-20-17-15-53,11-77c59-56,86-187,86-426c0-79,6-155,15-193c29-124,98-222,189-270c47-25,60-27,161-26   c148,0,193,17,328,126c39,32,60,16,67-50c10-92,9-92,242-43c112,23,213,49,226,57c29,19,29,64,1,90c-34,30-58,88-69,161   c-5,37-10,247-10,465v397l-22,15c-12,9-26,16-30,16S8707,1229,8678,1203z"/>
	<path class="st0" d="M1805,1230c-328-51-526-277-528-600c-1-175,49-296,173-421c82-83,174-136,284-164c209-53,442-12,596,104   c135,103,209,247,225,441c24,283-174,552-460,625C2018,1235,1882,1242,1805,1230z M1960,1034c158-80,235-521,129-740   c-55-114-193-124-273-19c-140,183-164,581-44,718C1825,1054,1892,1069,1960,1034z"/>
	<path class="st0" d="M3179,1229c-85-11-199-52-268-96c-195-125-299-391-247-633c48-220,201-378,436-451c97-30,290-33,389-5   c216,59,377,220,426,427c19,82,19,238,0,312c-61,235-266,411-518,446C3309,1241,3274,1241,3179,1229z M3341,1034   c144-72,224-478,140-705c-69-183-243-170-335,24c-55,117-70,192-70,352c0,123,3,147,23,199C3150,1033,3244,1083,3341,1034z"/>
</g>
</svg>